<?xml version="1.0" standalone="no"?>
<!DOCTYPE svg PUBLIC "-//W3C//DTD SVG 20010904//EN"
 "http://www.w3.org/TR/2001/REC-SVG-20010904/DTD/svg10.dtd">
<svg version="1.0" xmlns="http://www.w3.org/2000/svg"
 width="50px" height="50px" viewBox="0 0 614.000000 650.000000"
 preserveAspectRatio="xMidYMid meet">

<g transform="translate(0.000000,650.000000) scale(0.100000,-0.100000)"
fill="#000000" stroke="none">
<path d="M435 6454 c-79 -15 -172 -58 -227 -104 -52 -43 -114 -141 -139 -219
-15 -48 -22 -100 -24 -191 l-3 -125 8 115 c4 63 13 136 19 162 30 129 116 242
228 300 86 45 142 59 273 68 l105 7 -85 1 c-47 0 -116 -6 -155 -14z"/>
<path d="M711 6465 c3 -2 216 -6 475 -7 333 -1 437 -4 360 -10 -230 -16 -367
-92 -444 -244 -42 -84 -53 -132 -62 -269 l-7 -120 -1 95 c-3 184 45 318 147
413 63 58 122 91 199 112 42 12 44 13 16 14 -49 2 -172 -65 -235 -128 -94 -94
-135 -208 -143 -396 -5 -110 -6 -113 -37 -146 -53 -56 -74 -113 -73 -199 1
-83 23 -141 75 -195 l28 -30 1 -339 c1 -186 -1 -340 -3 -342 -4 -5 1 -2919 7
-3734 3 -405 6 -484 20 -535 23 -84 59 -155 106 -207 22 -25 36 -49 32 -53 -4
-5 -2 -5 4 -2 13 8 56 -21 49 -33 -3 -5 -1 -11 5 -15 18 -11 11 -21 -17 -23
-52 -4 -35 -12 28 -13 85 0 149 -6 157 -14 4 -3 -205 -5 -463 -3 -439 4 -474
5 -537 25 -133 40 -230 119 -288 233 -40 79 -51 129 -60 265 l-9 120 4 -125
c2 -96 8 -140 25 -190 55 -166 156 -260 343 -319 l68 -22 2590 1 2589 0 68 21
c218 70 335 206 362 423 4 39 10 1080 12 2313 2 1234 6 2243 11 2243 4 0 7 7
7 15 0 8 -5 15 -11 15 -5 0 -7 5 -3 11 9 16 11 119 2 119 -5 0 -3 9 4 20 10
16 10 22 1 28 -8 5 -13 118 -16 412 -3 263 -8 420 -16 448 -36 133 -130 253
-244 311 -128 65 28 61 -2675 61 -1350 0 -2453 -2 -2451 -5z m1497 -12 c-98
-2 -258 -2 -355 0 -98 1 -18 2 177 2 195 0 275 -1 178 -2z m1294 -5 c-161 -12
-259 -43 -331 -104 -18 -14 -34 -24 -37 -21 -14 14 98 79 186 109 48 16 50 18
17 14 -63 -8 -144 -52 -208 -113 -111 -106 -148 -198 -156 -393 l-6 -125 -38
-43 c-93 -106 -92 -269 2 -375 l39 -45 0 -341 c0 -188 -3 -341 -7 -341 -9 0
-7 -678 2 -701 2 -8 6 -806 7 -1774 3 -1680 4 -1763 21 -1815 40 -117 123
-222 227 -285 33 -19 38 -25 20 -22 -14 2 -36 1 -50 -3 -17 -6 -4 -8 45 -8 39
0 84 -5 100 -10 50 -17 -832 -15 -926 2 -198 36 -332 159 -386 356 -17 62 -18
206 -18 2835 1 2579 2 2775 18 2838 49 194 177 320 367 361 52 11 179 14 640
13 379 0 540 -3 472 -9z m2196 -4 c255 -52 394 -248 390 -549 l-1 -80 -9 110
c-16 194 -52 292 -140 382 -52 53 -138 102 -218 124 -34 10 -297 14 -1070 19
l-1025 5 998 3 c878 2 1007 0 1075 -14z m-3458 -40 c-25 -15 -61 -42 -82 -62
-20 -19 -41 -31 -47 -28 -18 12 -624 9 -654 -3 -15 -6 -38 -10 -50 -10 -19 1
-153 -59 -136 -61 4 0 -10 -17 -29 -37 -23 -24 -42 -37 -55 -35 -15 3 -18 0
-14 -12 5 -11 1 -16 -12 -16 -17 0 -18 3 -8 24 7 13 15 22 19 20 4 -3 5 1 2 9
-3 8 2 14 11 14 9 0 14 -6 11 -13 -6 -16 10 -29 18 -15 10 15 -6 43 -20 37 -8
-3 -14 1 -14 9 0 8 -5 15 -11 15 -5 0 -7 -4 -4 -10 7 -12 -8 -42 -21 -41 -9 1
-10 -3 -13 -35 0 -8 -6 -12 -11 -9 -7 4 -9 -7 -6 -30 4 -31 2 -34 -10 -25 -38
33 50 188 143 249 118 78 176 86 708 89 l330 2 -45 -26z m3475 3 c127 -35 219
-104 273 -205 65 -122 62 -14 62 -1896 0 -940 -2 -1707 -4 -1705 -2 2 -8 339
-12 749 -4 410 -10 747 -15 750 -7 5 -13 70 -19 210 -1 33 -2 33 -12 13 -14
-28 -28 -29 -35 -3 -3 11 -12 20 -19 20 -8 0 -14 9 -14 20 0 17 -7 20 -40 20
-33 0 -40 3 -40 20 0 11 -4 20 -10 20 -5 0 -10 8 -10 18 -1 9 -7 28 -14 40
l-13 24 -16 -25 c-8 -13 -17 -44 -19 -68 l-3 -44 -24 24 c-23 23 -23 25 -6 31
18 6 18 8 -6 31 -14 13 -34 29 -45 36 -16 10 -13 12 29 12 26 1 47 4 47 7 0
10 -70 74 -80 74 -5 0 -12 -9 -15 -20 -3 -11 -10 -20 -15 -20 -5 0 -12 9 -15
20 -3 11 -11 20 -16 20 -5 0 -9 9 -9 20 0 11 -6 23 -14 26 -8 3 -19 18 -26 34
-15 35 -40 48 -40 20 0 -18 -58 36 -185 173 -14 15 -34 27 -44 27 -9 0 -32 13
-51 30 -18 16 -41 32 -51 35 -9 3 -20 12 -23 20 -3 8 -15 15 -26 15 -11 0 -38
18 -60 40 -33 33 -47 40 -80 40 -31 0 -40 4 -40 18 -1 47 -92 84 -105 42 -3
-11 -10 -20 -15 -20 -13 0 -22 33 -11 39 16 10 -1 27 -49 48 -25 11 -67 41
-93 66 -26 26 -55 47 -65 47 -21 0 -62 42 -62 64 0 9 -7 16 -15 16 -9 0 -12 6
-9 15 4 8 3 23 -1 33 -4 9 -9 78 -11 152 -7 244 -22 426 -38 465 -9 20 -13 42
-9 48 3 6 1 7 -5 3 -8 -5 -12 1 -12 14 0 12 -4 19 -9 16 -5 -3 -12 5 -15 19
-4 14 -11 25 -16 25 -5 0 -17 14 -25 31 -9 17 -19 28 -22 25 -3 -3 -13 2 -22
12 -17 20 -141 85 -148 78 -2 -2 -21 0 -41 5 -20 5 -95 11 -167 13 -71 3 -204
8 -295 11 -91 4 -185 11 -210 16 -31 7 -46 7 -48 0 -2 -6 -8 -11 -14 -11 -6 0
-3 9 7 20 10 11 15 23 12 27 -4 3 -7 2 -7 -4 0 -16 -50 -26 -65 -13 -15 12
-68 3 -59 -11 3 -5 -2 -6 -11 -3 -8 4 -21 1 -29 -5 -7 -6 -16 -8 -19 -4 -4 3
-7 1 -7 -5 0 -7 -3 -11 -7 -10 -15 5 -84 -42 -78 -52 4 -6 11 -7 17 -4 7 4 8
2 4 -4 -4 -6 -14 -8 -23 -5 -11 4 -25 -4 -40 -23 -14 -16 -20 -20 -15 -9 26
51 125 122 213 151 50 17 119 19 919 25 1068 7 1407 4 1475 -14z m-2328 -53
c-3 -3 -12 -4 -19 -1 -8 3 -5 6 6 6 11 1 17 -2 13 -5z m-284 -78 c-66 -74 -97
-174 -113 -356 l-9 -105 4 115 c5 125 21 204 59 279 27 53 76 115 84 107 2 -3
-9 -21 -25 -40z m-1019 -16 c-15 -22 -30 -37 -35 -35 -4 3 -11 0 -15 -6 -5 -8
-3 -9 6 -4 14 8 8 -16 -17 -69 -12 -27 -13 -28 -10 -6 3 14 8 34 12 45 4 11
-9 -5 -28 -36 -44 -70 -45 -76 -52 -179 -3 -46 -11 -87 -17 -91 -6 -4 -8 -12
-4 -18 4 -6 -3 -21 -14 -33 -20 -22 -22 -22 -18 -3 2 13 -2 19 -11 17 -10 -2
-12 6 -7 34 5 21 4 34 -2 30 -11 -7 -35 101 -25 118 3 6 3 8 -2 4 -11 -10 -37
41 -28 55 4 6 1 7 -7 2 -9 -6 -10 -1 -5 16 5 19 4 21 -4 9 -6 -8 -11 -10 -12
-5 -1 6 -3 15 -4 20 -2 6 -3 17 -4 25 -1 12 -3 12 -10 2 -6 -10 -15 -7 -39 13
-33 28 -43 51 -18 42 10 -4 13 -1 9 9 -3 8 1 14 10 14 8 0 17 6 20 14 4 10
-14 15 -83 20 -214 16 -346 -48 -419 -203 l-26 -56 0 -425 0 -425 28 -57 c40
-82 120 -152 204 -178 57 -18 92 -20 299 -20 129 0 234 -4 234 -9 0 -12 -281
-13 -413 -2 -89 7 -120 15 -170 39 -115 57 -179 151 -197 287 -7 48 -10 219
-8 427 2 190 -1 341 -5 335 -5 -7 -5 -1 -2 13 4 14 11 29 16 34 5 6 9 15 9 20
0 6 -5 4 -11 -4 -8 -11 -9 -9 -3 9 11 39 33 87 34 73 0 -7 -5 -22 -11 -34 -6
-11 -8 -22 -6 -25 3 -3 15 12 25 34 11 21 29 48 41 59 11 12 17 25 14 28 -4 3
1 6 10 6 9 0 17 4 17 9 0 5 19 19 43 31 85 45 119 49 420 43 254 -5 283 -4
296 11 24 29 22 17 -5 -24z m2101 -6 c115 -29 207 -112 242 -218 14 -42 17
-101 20 -344 1 -161 -2 -310 -6 -330 -8 -34 -9 -31 -11 33 -3 67 -3 68 -10 25
-8 -44 -8 -43 -9 20 0 36 -1 86 -1 112 1 45 -10 102 -25 143 l-8 20 17 -20
c17 -20 17 -20 10 5 -4 14 -8 39 -8 56 -1 22 -5 30 -14 27 -9 -4 -10 -9 -1
-19 8 -9 8 -14 1 -14 -6 0 -14 5 -17 10 -4 6 -10 8 -14 5 -5 -2 -19 7 -32 21
-48 52 -106 77 -188 82 -71 4 -80 2 -140 -29 -74 -39 -112 -82 -146 -165 -22
-53 -25 -56 -25 -27 0 24 -6 34 -22 39 -13 5 -26 7 -29 6 -10 -2 -8 48 2 54 5
3 9 14 9 25 0 12 -4 17 -11 13 -6 -3 -3 9 7 27 10 20 18 62 20 104 l3 70 -10
-64 c-10 -62 -37 -130 -67 -163 -19 -23 -33 -23 -25 -1 5 12 2 15 -9 10 -11
-4 -7 10 14 44 37 58 46 128 27 197 -18 64 -91 137 -153 154 -40 11 -47 17
-66 60 -19 45 -22 47 -53 42 -126 -23 -241 -137 -273 -273 -18 -73 -20 -734
-3 -813 28 -130 113 -223 242 -263 31 -10 36 -14 17 -14 -65 -1 -191 93 -232
174 -45 86 -48 121 -48 515 0 282 4 387 14 425 31 118 136 224 246 249 76 17
689 10 765 -10z m-2487 -80 c51 -30 106 -103 123 -162 24 -85 -5 -207 -61
-257 l-23 -20 12 22 c17 34 13 36 -21 12 l-33 -23 31 36 c46 52 68 117 61 177
-11 96 -63 162 -162 207 -27 13 -44 23 -36 23 11 1 9 5 -5 15 -33 25 64 -1
114 -30z m1387 10 c-8 -16 -15 -23 -15 -16 0 13 22 53 27 48 2 -2 -3 -16 -12
-32z m402 30 c-3 -3 -12 -4 -19 -1 -8 3 -5 6 6 6 11 1 17 -2 13 -5z m138 -107
c33 -23 50 -42 66 -72 6 -11 -1 -6 -15 12 -27 32 -93 79 -102 71 -2 -3 5 -31
16 -63 11 -32 18 -60 16 -62 -2 -2 -13 25 -26 59 -12 35 -25 69 -28 77 -7 18
32 6 73 -22z m-2529 -42 c-4 -17 -2 -25 6 -25 9 0 8 -3 -2 -10 -13 -8 -15 -48
-18 -246 -1 -131 -5 -240 -7 -243 -7 -7 -5 486 2 522 3 15 10 27 15 27 6 0 7
-11 4 -25z m41 -17 c-3 -8 -6 -5 -6 6 -1 11 2 17 5 13 3 -3 4 -12 1 -19z m860
0 c-3 -8 -6 -5 -6 6 -1 11 2 17 5 13 3 -3 4 -12 1 -19z m-10 -80 c-3 -7 -5 -2
-5 12 0 14 2 19 5 13 2 -7 2 -19 0 -25z m-377 -32 c0 -11 -5 -28 -10 -36 -8
-11 -9 -8 -4 12 3 14 0 37 -7 50 -11 21 -11 22 4 9 10 -7 17 -23 17 -35z
m1950 16 c0 -15 -2 -15 -10 -2 -13 20 -13 33 0 25 6 -3 10 -14 10 -23z m-8
-54 c-8 -8 -9 -4 -5 13 4 13 8 18 11 10 2 -7 -1 -18 -6 -23z m661 -58 c60 -23
126 -83 153 -138 26 -54 29 -140 9 -203 -31 -93 -140 -181 -221 -178 -11 0 3
6 29 13 27 7 56 21 65 30 16 16 14 16 -23 0 -59 -25 -160 -24 -211 3 -93 49
-153 158 -140 256 4 28 12 59 17 69 5 10 7 18 4 18 -3 0 -13 -15 -21 -32 l-15
-33 6 30 c14 68 68 125 155 164 57 26 125 26 193 1z m-3199 -67 c-4 -16 -17
-46 -30 -69 -44 -75 -40 -179 7 -245 10 -15 19 -39 19 -55 0 -26 0 -27 -20 -9
-11 10 -32 43 -47 73 -32 65 -36 162 -11 223 14 31 73 109 84 109 3 0 1 -12
-2 -27z m939 14 c-25 -40 -66 -97 -70 -97 -6 0 18 42 45 78 24 31 41 45 25 19z
m-562 -14 c13 -16 12 -17 -3 -4 -10 7 -18 15 -18 17 0 8 8 3 21 -13z m591 5
c-15 -15 -16 -32 -2 -23 15 10 12 -4 -8 -33 -26 -37 -42 -88 -42 -132 0 -44
26 -124 46 -141 8 -6 14 -16 14 -22 0 -19 -41 42 -55 84 -22 63 -19 128 10
184 13 27 22 51 20 53 -5 5 -45 -59 -45 -72 0 -5 -2 -7 -5 -4 -13 13 52 118
73 118 3 0 1 -5 -6 -12z m988 -12 c0 -14 -5 -28 -11 -32 -23 -14 -49 -90 -49
-144 0 -39 8 -71 27 -110 15 -30 27 -66 28 -79 1 -22 -2 -21 -32 14 -79 92
-82 229 -6 338 30 43 43 47 43 13z m381 7 c13 -16 12 -17 -3 -4 -10 7 -18 15
-18 17 0 8 8 3 21 -13z m-2311 -2525 c0 -1392 -2 -2529 -4 -2527 -4 3 -10
4872 -7 5032 1 15 3 27 6 27 3 0 5 -1139 5 -2532z m850 2526 c0 -8 -19 -13
-24 -6 -3 5 1 9 9 9 8 0 15 -2 15 -3z m1097 -3791 c-1 -698 -2 -127 -2 1267 0
1394 1 1965 2 1268 2 -698 2 -1838 0 -2535z m3100 0 c-1 -698 -2 -127 -2 1267
0 1394 1 1965 2 1268 2 -698 2 -1838 0 -2535z m-2767 3752 c19 -19 32 -35 29
-35 -3 0 -20 16 -39 35 -19 19 -32 35 -29 35 3 0 20 -16 39 -35z m1058 -11
c-4 -3 -12 5 -18 18 -12 22 -12 22 6 6 10 -10 15 -20 12 -24z m-2657 -261 c13
-16 12 -17 -3 -4 -17 13 -22 21 -14 21 2 0 10 -8 17 -17z m1995 -35 l29 -33
-32 29 c-31 28 -38 36 -30 36 2 0 16 -15 33 -32z m-1916 -52 c0 -5 -13 8 -30
29 -16 21 -30 41 -30 44 1 9 59 -63 60 -73z m-260 -106 c0 -5 -4 -10 -10 -10
-5 0 -10 5 -10 10 0 6 5 10 10 10 6 0 10 -4 10 -10z m2804 -25 c3 -8 1 -15 -3
-15 -5 0 -11 7 -15 15 -3 8 -1 15 3 15 5 0 11 -7 15 -15z m-2742 -37 c-6 -6
-7 0 -4 19 5 21 7 23 10 9 2 -10 0 -22 -6 -28z m2711 2 c-7 -8 -22 24 -16 34
4 5 10 1 13 -10 4 -10 6 -21 3 -24z m124 -2 c-3 -7 -5 -2 -5 12 0 14 2 19 5
13 2 -7 2 -19 0 -25z m-377 8 c0 -2 -12 -11 -27 -20 l-28 -17 24 20 c23 21 31
25 31 17z m700 -91 c7 -8 19 -15 26 -15 8 0 14 -6 14 -14 0 -11 -8 -11 -40 -3
-28 8 -40 17 -40 29 0 22 23 24 40 3z m-3340 -76 c14 -12 18 -17 10 -13 -24
11 -61 47 -72 69 -5 11 0 8 14 -8 13 -16 34 -37 48 -48z m1951 4 c13 -16 12
-17 -3 -4 -17 13 -22 21 -14 21 2 0 10 -8 17 -17z m958 -79 c-14 -17 -77 -52
-127 -70 -42 -15 -213 -20 -507 -14 l-230 4 360 6 360 5 62 29 c35 16 68 35
74 42 6 8 14 14 16 14 3 0 0 -7 -8 -16z m711 -4 c0 -5 -2 -10 -4 -10 -3 0 -8
5 -11 10 -3 6 -1 10 4 10 6 0 11 -4 11 -10z m320 -240 c0 -5 -2 -10 -4 -10 -3
0 -8 5 -11 10 -3 6 -1 10 4 10 6 0 11 -4 11 -10z m-3362 -412 c-1 -167 -5
-312 -9 -323 -4 -11 -8 135 -8 325 0 205 4 336 9 323 5 -11 8 -158 8 -325z
m3842 -3 c0 -22 -3 -24 -19 -16 -31 17 -34 41 -6 41 20 0 25 -5 25 -25z m50
11 c0 -21 -21 -31 -31 -15 -14 22 -11 29 11 29 11 0 20 -6 20 -14z m157 -1808
c-2 -13 -4 -3 -4 22 0 25 2 35 4 23 2 -13 2 -33 0 -45z m-4977 -2147 c51 -152
156 -250 315 -297 51 -14 126 -18 490 -24 l430 -7 -435 2 c-478 2 -480 2 -599
65 -160 86 -243 250 -239 480 l1 95 7 -125 c5 -87 14 -145 30 -189z m1951 15
c47 -157 146 -255 319 -312 51 -17 123 -19 1075 -24 l1020 -6 -988 -2 c-857
-2 -998 0 -1065 13 -196 40 -329 160 -377 341 -9 32 -17 111 -20 174 l-4 115
10 -115 c5 -63 19 -146 30 -184z m3059 96 c-6 -46 -20 -108 -31 -137 -41 -109
-134 -208 -241 -254 -64 -29 -187 -51 -270 -50 -68 1 -64 3 52 14 175 18 275
59 357 148 82 89 119 194 131 372 6 90 8 99 10 50 2 -33 -2 -98 -8 -143z
m-910 -396 c0 -3 -9 3 -20 14 -11 11 -20 25 -20 31 0 7 9 0 20 -14 11 -14 20
-28 20 -31z m37 28 c10 -21 10 -24 -2 -14 -10 8 -14 7 -18 -7 -3 -10 -5 -3 -6
15 -1 38 10 41 26 6z m32 -6 c-1 -31 -1 -31 -8 -8 -5 14 -6 28 -4 33 9 15 13
6 12 -25z m36 11 c-5 -15 -4 -19 4 -15 6 4 11 2 11 -3 0 -6 -7 -11 -15 -11
-16 0 -19 9 -9 34 9 24 16 19 9 -5z m-198 -26 c-3 -10 -5 -4 -5 12 0 17 2 24
5 18 2 -7 2 -21 0 -30z m-213 3 c-6 -16 -24 -13 -24 5 0 6 5 7 10 4 6 -3 10
-1 10 6 0 7 2 10 5 7 3 -3 3 -13 -1 -22z m68 -1 c-8 -16 -9 -16 -15 -1 -4 10
-3 15 3 11 6 -3 10 -1 10 6 0 7 3 10 6 6 3 -3 2 -13 -4 -22z m68 14 c0 8 2 12
5 9 3 -3 2 -13 -1 -22 -5 -14 -9 -15 -15 -4 -5 7 -9 18 -9 23 0 6 5 3 10 -5 8
-12 10 -12 10 -1z m31 -16 c-12 -20 -14 -14 -5 12 4 9 9 14 11 11 3 -2 0 -13
-6 -23z m292 7 c-3 -11 -7 -20 -9 -20 -2 0 -4 9 -4 20 0 11 4 20 9 20 5 0 7
-9 4 -20z m28 -3 c-10 -9 -11 -8 -5 6 3 10 9 15 12 12 3 -3 0 -11 -7 -18z m56
-9 c-3 -7 -5 -2 -5 12 0 14 2 19 5 13 2 -7 2 -19 0 -25z m31 1 c-3 -8 -7 -3
-11 10 -4 17 -3 21 5 13 5 -5 8 -16 6 -23z m52 10 c0 -11 -4 -18 -10 -14 -5 3
-7 12 -3 20 7 21 13 19 13 -6z m47 -11 c-3 -7 -5 -2 -5 12 0 14 2 19 5 13 2
-7 2 -19 0 -25z m50 0 c-3 -7 -5 -2 -5 12 0 14 2 19 5 13 2 -7 2 -19 0 -25z
m33 7 c0 -8 -3 -16 -7 -18 -5 -3 -8 5 -8 18 0 13 3 21 8 18 4 -2 7 -10 7 -18z
m23 5 c-3 -11 -7 -20 -9 -20 -2 0 -4 9 -4 20 0 11 4 20 9 20 5 0 7 -9 4 -20z
m54 -5 c1 -16 1 -16 -3 -2 -3 9 -9 17 -14 17 -5 0 -11 -8 -13 -17 -3 -13 -5
-12 -6 5 -1 30 33 27 36 -3z m-4431 0 c16 -12 16 -14 3 -15 -9 0 -22 7 -29 15
-16 19 0 19 26 0z"/>
<path d="M2630 6440 c0 -6 7 -10 15 -10 8 0 15 2 15 4 0 2 -7 6 -15 10 -8 3
-15 1 -15 -4z"/>
<path d="M2415 6186 c-150 -69 -204 -249 -119 -393 16 -26 28 -51 27 -54 -1
-4 10 -17 25 -30 14 -13 20 -16 13 -6 -8 10 -9 17 -3 17 6 0 14 -5 18 -11 14
-23 100 -51 156 -51 69 0 119 15 175 54 38 25 93 99 93 124 0 5 -10 -7 -21
-26 -37 -62 -109 -126 -79 -70 10 19 9 19 -25 -1 -20 -12 -39 -19 -42 -15 -4
3 -1 6 5 6 20 0 82 62 101 99 26 52 33 102 21 155 -22 98 -92 164 -203 191
-29 7 -44 13 -34 14 9 1 17 6 17 11 0 18 -74 10 -125 -14z m175 -251 c0 -6 -7
-20 -15 -31 -14 -18 -15 -17 -4 7 8 20 8 33 -1 50 -11 23 -10 23 4 5 9 -11 16
-25 16 -31z m-176 -196 c17 -10 25 -19 19 -19 -17 0 -91 67 -105 94 -5 12 5 4
23 -18 18 -21 46 -47 63 -57z m173 -35 c-3 -3 -12 -4 -19 -1 -8 3 -5 6 6 6 11
1 17 -2 13 -5z"/>
<path d="M2813 5925 c0 -22 2 -30 4 -17 2 12 2 30 0 40 -3 9 -5 -1 -4 -23z"/>
<path d="M2801 5864 c0 -11 3 -14 6 -6 3 7 2 16 -1 19 -3 4 -6 -2 -5 -13z"/>
<path d="M2450 5501 c-48 -15 -87 -40 -123 -80 -94 -105 -99 -256 -12 -359 20
-23 33 -42 29 -42 -4 0 -2 -6 4 -12 7 -7 20 -13 30 -13 9 0 16 -6 14 -13 -1
-8 2 -11 7 -7 6 3 34 -1 63 -9 70 -19 123 -28 115 -19 -9 9 64 34 81 28 8 -3
10 0 6 7 -5 7 -2 9 8 5 9 -3 24 1 35 9 16 14 16 14 -7 3 l-25 -12 19 22 c11
12 26 19 33 16 8 -2 12 -1 9 4 -3 5 3 20 14 34 141 179 11 449 -215 446 -33 0
-71 -4 -85 -8z m-97 -120 c-15 -22 -30 -38 -32 -36 -3 4 49 75 56 75 2 0 -8
-18 -24 -39z m-46 -103 c-3 -8 -6 -5 -6 6 -1 11 2 17 5 13 3 -3 4 -12 1 -19z
m208 -8 c3 -5 1 -10 -4 -10 -6 0 -11 5 -11 10 0 6 2 10 4 10 3 0 8 -4 11 -10z
m-218 -47 c-3 -10 -5 -4 -5 12 0 17 2 24 5 18 2 -7 2 -21 0 -30z m290 5 c-3
-8 -6 -5 -6 6 -1 11 2 17 5 13 3 -3 4 -12 1 -19z m-254 -104 c22 -42 77 -89
122 -104 20 -7 34 -14 32 -17 -10 -9 -92 34 -121 63 -33 34 -66 96 -65 121 0
12 3 10 8 -7 5 -14 15 -39 24 -56z"/>
<path d="M1205 6285 c-16 -13 -27 -26 -25 -28 3 -3 19 8 35 24 36 35 31 37
-10 4z"/>
<path d="M1243 6270 c1 -20 12 -26 20 -12 3 4 -1 13 -8 19 -11 10 -13 9 -12
-7z"/>
<path d="M1210 6260 c-9 -6 -10 -10 -3 -10 6 0 15 5 18 10 8 12 4 12 -15 0z"/>
<path d="M1225 6230 c-3 -5 -1 -10 4 -10 6 0 11 5 11 10 0 6 -2 10 -4 10 -3 0
-8 -4 -11 -10z"/>
<path d="M3398 6393 c6 -2 18 -2 25 0 6 3 1 5 -13 5 -14 0 -19 -2 -12 -5z"/>
<path d="M1730 6186 c0 -2 8 -10 18 -17 15 -13 16 -12 3 4 -13 16 -21 21 -21
13z"/>
<path d="M1901 5884 c0 -11 3 -14 6 -6 3 7 2 16 -1 19 -3 4 -6 -2 -5 -13z"/>
<path d="M3757 6065 c9 -19 18 -33 21 -31 4 5 -26 66 -33 66 -3 0 3 -16 12
-35z"/>
<path d="M3781 6004 c0 -11 3 -14 6 -6 3 7 2 16 -1 19 -3 4 -6 -2 -5 -13z"/>
<path d="M4015 5970 c10 -11 20 -20 23 -20 3 0 -3 9 -13 20 -10 11 -20 20 -23
20 -3 0 3 -9 13 -20z"/>
<path d="M4422 5540 c0 -14 2 -19 5 -12 2 6 2 18 0 25 -3 6 -5 1 -5 -13z"/>
<path d="M4037 5806 c-20 -7 -44 -19 -52 -26 -8 -6 -20 -8 -27 -4 -7 4 -10 4
-6 -1 4 -4 -5 -26 -21 -49 -61 -89 -64 -161 -11 -253 89 -155 320 -151 400 7
55 110 17 246 -87 307 -53 31 -141 40 -196 19z"/>
<path d="M3906 5734 c-5 -14 -4 -15 9 -4 17 14 19 20 6 20 -5 0 -12 -7 -15
-16z"/>
<path d="M980 5432 c6 -13 14 -21 18 -18 3 4 -2 14 -12 24 -18 16 -18 16 -6
-6z"/>
<path d="M2910 5473 c0 -12 49 -73 50 -62 0 3 -11 20 -25 39 -14 19 -25 29
-25 23z"/>
<path d="M471 6193 c-61 -22 -133 -96 -154 -158 -36 -106 -15 -211 59 -286 24
-25 42 -48 38 -51 -3 -4 5 -11 18 -18 22 -11 22 -10 4 4 -26 21 -17 20 35 -4
77 -34 218 -21 269 26 12 12 12 14 -4 14 -16 0 -17 2 -5 17 13 17 13 17 -13 0
-46 -29 -42 -19 10 28 87 78 105 192 47 291 -30 50 -92 100 -136 108 -98 19
-92 17 -72 32 16 12 15 13 -17 13 -19 0 -55 -8 -79 -16z m-64 -102 c-19 -21
-38 -49 -42 -61 -4 -12 -9 -19 -12 -17 -8 8 17 49 50 85 43 45 47 40 4 -7z
m223 -154 c0 -12 -4 -28 -8 -34 -5 -7 -8 4 -7 26 0 22 3 37 8 34 4 -2 7 -14 7
-26z m-192 -185 c16 -12 40 -26 53 -31 15 -6 18 -10 8 -10 -36 -2 -149 107
-149 143 0 6 13 -11 29 -36 16 -25 42 -55 59 -66z m109 -48 c-3 -3 -12 -4 -19
-1 -8 3 -5 6 6 6 11 1 17 -2 13 -5z m86 -1 c-7 -2 -19 -2 -25 0 -7 3 -2 5 12
5 14 0 19 -2 13 -5z"/>
<path d="M851 5894 c0 -11 3 -14 6 -6 3 7 2 16 -1 19 -3 4 -6 -2 -5 -13z"/>
<path d="M834 5835 c-4 -15 -22 -48 -42 -73 -27 -37 -29 -42 -8 -23 28 26 72
108 63 118 -3 3 -9 -7 -13 -22z"/>
<path d="M39 5223 c0 -307 0 -702 1 -878 1 -198 -3 -331 -9 -348 -7 -17 -7
-27 -1 -27 6 0 11 -582 13 -1627 1 -1230 3 -1009 5 905 1 1392 0 2532 -3 2532
-3 0 -5 -251 -6 -557z"/>
<path d="M476 5495 c-53 -19 -106 -63 -140 -119 -24 -39 -30 -61 -34 -126 -4
-72 -2 -85 24 -137 16 -32 28 -61 27 -64 -1 -3 12 -19 29 -35 17 -16 28 -23
23 -15 -5 9 -3 12 6 9 8 -3 13 -10 12 -16 -1 -5 3 -9 10 -9 17 1 107 -26 107
-33 0 -7 52 -6 65 1 6 4 23 9 38 13 21 5 27 4 21 -5 -4 -7 -2 -10 5 -8 7 3 12
9 12 14 0 15 27 27 41 19 6 -4 8 -3 5 3 -7 12 14 33 35 37 22 3 39 17 32 27
-3 6 1 18 10 27 46 52 60 168 30 256 -22 63 -97 138 -160 160 -58 19 -145 20
-198 1z m-64 -99 c-22 -23 -43 -53 -47 -65 -4 -13 -9 -20 -12 -18 -8 9 18 50
55 90 50 52 53 47 4 -7z m-33 -278 c26 -43 77 -84 129 -103 20 -7 30 -14 22
-14 -30 -1 -96 37 -129 74 -47 54 -61 94 -59 167 l1 63 7 -75 c4 -50 14 -87
29 -112z m181 152 c0 -5 -5 -10 -11 -10 -5 0 -7 5 -4 10 3 6 8 10 11 10 2 0 4
-4 4 -10z m67 -47 c-3 -10 -5 -4 -5 12 0 17 2 24 5 18 2 -7 2 -21 0 -30z
m-242 -193 c10 -11 16 -20 13 -20 -3 0 -13 9 -23 20 -10 11 -16 20 -13 20 3 0
13 -9 23 -20z"/>
<path d="M440 4976 c0 -3 9 -10 20 -16 11 -6 20 -8 20 -6 0 3 -9 10 -20 16
-11 6 -20 8 -20 6z"/>
<path d="M408 33 c7 -3 16 -2 19 1 4 3 -2 6 -13 5 -11 0 -14 -3 -6 -6z"/>
</g>
</svg>
