<?xml version="1.0" standalone="no"?>
<!DOCTYPE svg PUBLIC "-//W3C//DTD SVG 20010904//EN"
 "http://www.w3.org/TR/2001/REC-SVG-20010904/DTD/svg10.dtd">
<svg version="1.0" xmlns="http://www.w3.org/2000/svg"
 width="35px" height="35px" viewBox="0 0 160.000000 123.000000"
 preserveAspectRatio="xMidYMid meet">

<g transform="translate(0.000000,123.000000) scale(0.100000,-0.100000)"
fill="#000000" stroke="none">
<path d="M1412 1212 c-9 -9 -35 -63 -57 -120 l-40 -102 -646 0 c-528 0 -649
-2 -658 -13 -12 -15 -16 2 107 -407 39 -129 73 -247 76 -262 6 -27 9 -28 69
-28 l62 0 -33 -20 c-99 -60 -73 -220 40 -251 52 -14 98 2 138 47 52 60 37 162
-32 203 l-30 19 63 4 c35 3 152 5 259 6 l195 2 -42 -19 c-120 -55 -106 -228
19 -262 50 -13 94 1 133 41 22 23 29 41 32 82 5 67 -20 111 -80 138 l-42 20
86 0 c57 0 90 4 96 13 9 11 95 201 276 607 32 74 63 139 67 144 5 4 21 -6 36
-23 37 -42 65 -38 82 12 12 38 11 40 -34 97 -25 32 -61 66 -79 74 -41 20 -41
20 -63 -2z m-172 -382 c-11 -28 -20 -53 -20 -55 0 -3 -235 -4 -521 -3 l-522 3
-13 45 c-8 25 -14 48 -14 53 0 4 250 7 555 7 l555 0 -20 -50z m-85 -206 c-8
-20 -15 -38 -15 -40 0 -8 -909 -4 -913 4 -3 4 -8 22 -12 40 l-7 32 481 0 481
0 -15 -36z m-65 -159 c0 -3 -7 -21 -14 -40 l-15 -35 -390 0 c-214 0 -392 3
-394 8 -3 4 -8 22 -12 40 l-7 32 416 0 c229 0 416 -2 416 -5z"/>
</g>
</svg>
